<?xml version="1.0" encoding="UTF-8" standalone="no"?>
<svg
   xmlns:dc="http://purl.org/dc/elements/1.1/"
   xmlns:cc="http://creativecommons.org/ns#"
   xmlns:rdf="http://www.w3.org/1999/02/22-rdf-syntax-ns#"
   xmlns:svg="http://www.w3.org/2000/svg"
   xmlns="http://www.w3.org/2000/svg"
   xmlns:xlink="http://www.w3.org/1999/xlink"
   xml:space="preserve"
   enable-background="new 0 0 260 90"
   viewBox="0 0 220.996 60.666"
   height="60.666"
   width="220.996"
   y="0px"
   x="0px"
   id="Layer_1"
   version="1.1"><metadata
     id="metadata119"><rdf:RDF><cc:Work
         rdf:about=""><dc:format>image/svg+xml</dc:format><dc:type
           rdf:resource="http://purl.org/dc/dcmitype/StillImage" /><dc:title></dc:title></cc:Work></rdf:RDF></metadata><defs
     id="defs117" /><rect
     style="fill:none"
     y="-14.667"
     x="-19.502001"
     id="rect3"
     height="90"
     width="260" /><g
     transform="translate(-19.502,-14.667)"
     id="g5"><ellipse
       style="fill:#ffffff"
       id="ellipse7"
       ry="29.208"
       rx="29.25"
       cy="45"
       cx="49.876999" /><circle
       style="fill:#de5833"
       id="circle9"
       r="26.049999"
       cy="45"
       cx="49.881001" /><g
       id="g11"><path
         style="fill:#de5833"
         id="path13"
         d="M 49.877,75.333 C 33.128,75.333 19.502,61.727 19.502,45 c 0,-16.726 13.626,-30.333 30.375,-30.333 16.749,0 30.375,13.607 30.375,30.333 0,16.727 -13.626,30.333 -30.375,30.333 z m 0,-58.416 c -15.508,0 -28.125,12.598 -28.125,28.083 0,15.484 12.617,28.083 28.125,28.083 15.508,0 28.125,-12.599 28.125,-28.083 0,-15.485 -12.617,-28.083 -28.125,-28.083 z" /></g><g
       id="g15"><g
         id="g17"><path
           style="fill:#4c4c4c"
           id="path19"
           d="m 98.309,35.05 -6.551,0 -0.142,0.025 0,18.268 6.692,0 c 6.346,0 9.185,-4.69 9.185,-9.34 0,-4.312 -2.873,-8.953 -9.184,-8.953 z m 0,2.444 c 4.604,0 6.666,3.256 6.666,6.485 0,3.158 -1.745,6.843 -6.666,6.843 l -4.174,0 0,-13.328 4.174,0 z" /><path
           style="fill:#4c4c4c"
           id="path21"
           d="m 119.588,47.32 c 0,2.287 -1.583,3.968 -3.763,3.988 -2.323,0 -3.711,-1.432 -3.711,-3.812 l 0,-7.129 -2.39,0 0,7.156 c 0,3.662 2.225,6.021 5.665,6.021 l 0.002,0 c 1.777,-0.021 3.22,-0.692 4.294,-1.983 l 0.091,1.776 2.204,0 0,-12.97 -2.39,0 -0.002,6.953 0,0 z" /><path
           style="fill:#4c4c4c"
           id="path23"
           d="m 135.96,51.381 -1.489,-1.49 -0.104,0.104 c -0.811,0.836 -1.95,1.291 -3.209,1.291 -2.182,0 -4.383,-1.367 -4.383,-4.431 0,-2.61 1.812,-4.438 4.407,-4.438 1.164,0 2.297,0.452 3.109,1.245 l 0.104,0.098 1.532,-1.591 -0.103,-0.098 c -1.312,-1.289 -2.895,-1.943 -4.697,-1.943 -4.052,0 -6.771,2.7 -6.771,6.727 0,4.641 3.399,6.717 6.771,6.717 1.879,0 3.504,-0.67 4.828,-1.993 l 0.104,-0.101 -0.099,-0.097 0,0 z" /><polygon
           style="fill:#4c4c4c"
           id="polygon25"
           points="140.389,45.506 140.389,35.077 138.021,35.077 138.021,53.346 140.389,53.346 140.389,47.561 146.172,53.346 148.941,53.346 148.941,52.988 142.426,46.497 148.225,40.698 148.225,40.368 145.4,40.368 " /><path
           style="fill:#4c4c4c"
           id="path27"
           d="m 157.529,35.05 -6.549,0 -0.146,0.025 0,18.268 6.688,0 c 6.353,0 9.188,-4.69 9.188,-9.34 0.007,-4.312 -2.868,-8.953 -9.181,-8.953 z m 0,2.444 c 4.604,0 6.668,3.256 6.668,6.485 0,3.158 -1.745,6.843 -6.668,6.843 l -4.172,0 0,-13.328 4.172,0 z" /><path
           style="fill:#4c4c4c"
           id="path29"
           d="m 178.809,47.32 c 0,2.287 -1.582,3.968 -3.766,3.988 -2.32,0 -3.71,-1.432 -3.71,-3.812 l 0,-7.129 -2.39,0 0,7.156 c 0,3.662 2.226,6.021 5.664,6.021 l 0.002,0 c 1.772,-0.021 3.219,-0.692 4.293,-1.983 l 0.093,1.776 2.205,0 0,-12.97 -2.392,0 0,6.953 0.001,0 0,0 z" /><path
           style="fill:#4c4c4c"
           id="path31"
           d="m 195.182,51.381 -1.49,-1.49 -0.1,0.104 c -0.812,0.836 -1.951,1.291 -3.211,1.291 -2.181,0 -4.382,-1.367 -4.382,-4.431 0,-2.61 1.812,-4.438 4.403,-4.438 1.164,0 2.298,0.452 3.113,1.245 l 0.103,0.098 1.532,-1.591 -0.104,-0.098 c -1.312,-1.289 -2.892,-1.943 -4.696,-1.943 -4.052,0 -6.771,2.7 -6.771,6.727 0,4.641 3.403,6.717 6.771,6.717 1.879,0 3.504,-0.67 4.828,-1.993 l 0.104,-0.101 -0.1,-0.097 0,0 z" /><polygon
           style="fill:#4c4c4c"
           id="polygon33"
           points="199.609,45.506 199.609,35.077 197.244,35.077 197.244,53.346 199.609,53.346 199.609,47.561 205.395,53.346 208.165,53.346 208.165,52.988 201.646,46.497 207.445,40.698 207.445,40.368 204.622,40.368 " /><path
           style="fill:#4c4c4c"
           id="path35"
           d="m 217.203,45.482 5.598,0 0,4.057 c -1.349,1.143 -2.994,1.747 -4.764,1.747 -4.869,0 -7.049,-3.478 -7.049,-6.922 0,-3.508 2.189,-7.282 7,-7.282 1.896,0 3.895,0.792 5.217,2.065 l 0.107,0.106 1.471,-1.706 -0.094,-0.092 c -1.793,-1.767 -4.172,-2.739 -6.703,-2.739 -2.76,0 -5.123,0.907 -6.83,2.622 -1.73,1.739 -2.678,4.235 -2.662,7.025 0,4.297 2.492,9.313 9.518,9.313 2.801,0 5.113,-1.015 7.066,-3.104 l 0.037,-0.039 0,-7.314 -7.912,0 0,2.263 0,0 z" /><path
           style="fill:#4c4c4c"
           id="path37"
           d="m 233.754,40.084 c -3.893,0 -6.719,2.859 -6.719,6.797 0,3.878 2.826,6.692 6.719,6.692 3.906,0 6.744,-2.814 6.744,-6.692 0,-4.003 -2.775,-6.797 -6.744,-6.797 z m 0,11.225 c -2.508,0 -4.328,-1.854 -4.328,-4.428 0,-2.699 1.791,-4.583 4.354,-4.583 2.522,0 4.354,1.927 4.354,4.582 -0.029,2.61 -1.829,4.429 -4.38,4.429 z" /></g></g><g
       id="g39"><g
         id="g41"><g
           id="g43"><g
             id="g45"><g
               id="g47"><g
                 id="g49"><g
                   id="g51"><g
                     id="g53"><g
                       id="g55"><g
                         id="g57"><g
                           id="g59"><g
                             id="g61"><g
                               id="g63"><g
                                 id="g65"><g
                                   id="g67"><defs
                                   id="defs69"><path
                                   d="m 76.163,44.928 c 0,14.494 -11.79,26.283 -26.285,26.283 -14.492,0 -26.28,-11.791 -26.28,-26.283 0,-14.491 11.79,-26.28 26.28,-26.28 14.495,-0.001 26.285,11.789 26.285,26.28 z"
                                   id="SVGID_1_" /></defs><clipPath
                                   id="SVGID_2_"><use
                                   height="100%"
                                   width="100%"
                                   y="0"
                                   x="0"
                                   style="overflow:visible"
                                   id="use73"
                                   overflow="visible"
                                   xlink:href="#SVGID_1_" /></clipPath><g
                                   id="g75"
                                   clip-path="url(#SVGID_2_)"><path
                                   style="fill:#d5d7d8"
                                   id="path77"
                                   d="M 60.554,83.801 C 59.637,79.58 54.31,70.03 52.289,65.992 50.27,61.955 48.247,56.262 49.167,52.59 c 0.167,-0.668 -1.749,-5.759 -1.198,-6.119 4.285,-2.795 5.415,0.307 7.13,-0.947 0.885,-0.646 2.083,0.531 2.39,-0.541 1.098,-3.854 -1.531,-10.571 -4.465,-13.508 -0.959,-0.957 -2.43,-1.558 -4.089,-1.877 -0.638,-0.872 -1.668,-1.712 -3.125,-2.484 -1.624,-0.864 -5.154,-2.005 -6.984,-2.309 -1.269,-0.209 -1.555,0.146 -2.098,0.234 0.505,0.045 2.902,1.229 3.37,1.299 -0.467,0.315 -1.837,-0.015 -2.712,0.377 -0.44,0.2 -0.77,0.957 -0.767,1.314 2.5,-0.253 6.402,-0.008 8.708,1.018 -1.834,0.209 -4.624,0.442 -5.823,1.072 -3.487,1.838 -5.027,6.129 -4.109,11.27 0.919,5.13 4.959,23.856 6.245,30.109 1.286,6.246 -2.754,10.281 -5.324,11.383 l 2.754,0.186 -0.917,2.021 c 3.302,0.368 6.974,-0.73 6.974,-0.73 -0.733,2.021 -5.692,2.758 -5.692,2.758 0,0 2.39,0.729 6.243,-0.734 3.857,-1.467 6.244,-2.391 6.244,-2.391 l 1.835,4.771 3.491,-3.485 1.469,3.672 c -10e-4,-0.006 2.755,-0.928 1.837,-5.148 z" /><path
                                   style="fill:#ffffff"
                                   id="path79"
                                   d="M 61.663,82.943 C 60.748,78.722 55.422,69.172 53.4,65.131 c -2.021,-4.04 -4.041,-9.73 -3.122,-13.4 0.17,-0.668 0.174,-3.396 0.728,-3.758 4.283,-2.8 3.979,-0.096 5.696,-1.35 0.886,-0.646 1.595,-1.429 1.904,-2.501 1.103,-3.855 -1.531,-10.571 -4.468,-13.509 -0.956,-0.958 -2.427,-1.559 -4.086,-1.876 -0.637,-0.875 -1.665,-1.712 -3.123,-2.485 -2.745,-1.458 -6.148,-2.041 -9.301,-1.469 0.504,0.046 1.658,1.089 2.123,1.157 -0.703,0.477 -2.572,0.416 -2.561,1.475 2.503,-0.25 5.247,0.145 7.554,1.17 -1.834,0.208 -3.542,0.661 -4.741,1.294 -3.491,1.834 -4.408,5.506 -3.491,10.65 0.92,5.142 4.961,23.868 6.242,30.112 1.287,6.239 -2.751,10.277 -5.321,11.381 l 2.754,0.188 -0.917,2.02 c 3.302,0.36 6.974,-0.732 6.974,-0.732 -0.732,2.021 -5.691,2.754 -5.691,2.754 0,0 2.386,0.732 6.242,-0.734 3.859,-1.469 6.248,-2.387 6.248,-2.387 l 1.833,4.771 3.491,-3.488 1.471,3.673 c -0.007,-0.003 2.745,-0.922 1.825,-5.144 z" /><path
                                   style="fill:#2d4f8e"
                                   id="path81"
                                   d="m 40.555,40.788 c 0,-1.065 0.861,-1.929 1.93,-1.929 1.064,0 1.927,0.862 1.927,1.929 0,1.066 -0.863,1.928 -1.927,1.928 -1.068,0 -1.93,-0.862 -1.93,-1.928 z" /><path
                                   style="fill:#ffffff"
                                   id="path83"
                                   d="m 42.84,40.144 c 0,-0.277 0.225,-0.5 0.499,-0.5 0.277,0 0.501,0.224 0.501,0.5 0,0.276 -0.224,0.501 -0.501,0.501 -0.274,10e-4 -0.499,-0.223 -0.499,-0.501 z" /><path
                                   style="fill:#2d4f8e"
                                   id="path85"
                                   d="m 53.717,39.644 c 0,-0.913 0.744,-1.655 1.656,-1.655 0.917,0 1.657,0.742 1.657,1.655 0,0.917 -0.741,1.659 -1.657,1.659 -0.912,0 -1.656,-0.742 -1.656,-1.659 z" /><path
                                   style="fill:#ffffff"
                                   id="path87"
                                   d="m 55.681,39.093 c 0,-0.235 0.193,-0.429 0.427,-0.429 0.243,0 0.429,0.193 0.429,0.429 0,0.239 -0.187,0.429 -0.429,0.429 -0.234,-10e-4 -0.427,-0.191 -0.427,-0.429 z" /><linearGradient
                                   gradientTransform="matrix(1,0,0,-1,-2774,-4343)"
                                   y2="-4378.8423"
                                   x2="2817.0332"
                                   y1="-4378.8423"
                                   x1="2812.6709"
                                   gradientUnits="userSpaceOnUse"
                                   id="SVGID_3_"><stop
                                   id="stop90"
                                   style="stop-color:#6176B9"
                                   offset="0.0056" /><stop
                                   id="stop92"
                                   style="stop-color:#394A9F"
                                   offset="0.691" /></linearGradient><path
                                   style="fill:url(#SVGID_3_)"
                                   id="path94"
                                   d="m 43.033,35.2 c 0,0 -1.454,-0.657 -2.867,0.23 -1.41,0.887 -1.358,1.794 -1.358,1.794 0,0 -0.75,-1.672 1.249,-2.491 2.001,-0.818 2.976,0.467 2.976,0.467 z" /><linearGradient
                                   gradientTransform="matrix(1,0,0,-1,-2774,-4343)"
                                   y2="-4377.5132"
                                   x2="2830.3701"
                                   y1="-4377.5132"
                                   x1="2826.3945"
                                   gradientUnits="userSpaceOnUse"
                                   id="SVGID_4_"><stop
                                   id="stop97"
                                   style="stop-color:#6176B9"
                                   offset="0.0056" /><stop
                                   id="stop99"
                                   style="stop-color:#394A9F"
                                   offset="0.691" /></linearGradient><path
                                   style="fill:url(#SVGID_4_)"
                                   id="path101"
                                   d="m 56.37,35.067 c 0,0 -1.043,-0.597 -1.855,-0.587 -1.664,0.021 -2.12,0.758 -2.12,0.758 0,0 0.279,-1.754 2.411,-1.403 1.155,0.193 1.564,1.232 1.564,1.232 z" /></g></g></g></g></g></g></g></g></g></g></g></g></g></g></g><path
         style="fill:#fdd20a"
         id="path103"
         d="m 48.387,48.225 c 0.193,-1.166 3.208,-3.374 5.342,-3.508 2.139,-0.134 2.806,-0.104 4.588,-0.531 1.787,-0.428 6.383,-1.572 7.656,-2.16 1.275,-0.589 6.672,0.292 2.868,2.413 -1.647,0.921 -6.083,2.612 -9.253,3.56 -3.167,0.946 -5.087,-0.906 -6.14,0.651 -0.838,1.229 -0.171,2.933 3.614,3.285 5.11,0.476 10.01,-2.308 10.55,-0.828 0.542,1.476 -4.393,3.312 -7.398,3.373 -3,0.057 -9.051,-1.981 -9.957,-2.615 -0.911,-0.633 -2.122,-2.104 -1.87,-3.64 z" /></g><g
       id="g105"><path
         style="fill:#65bc46"
         id="path107"
         d="m 50.699,63.359 c 0,0 -7.179,-3.828 -7.297,-2.275 -0.121,1.557 0,7.898 0.837,8.377 0.838,0.479 6.821,-3.109 6.821,-3.109 l -0.361,-2.993 z" /><path
         style="fill:#65bc46"
         id="path109"
         d="m 53.451,63.12 c 0,0 4.906,-3.712 5.985,-3.472 1.075,0.244 1.315,7.896 0.356,8.262 -0.957,0.355 -6.572,-1.943 -6.572,-1.943 l 0.231,-2.847 z" /><path
         style="fill:#43a244"
         id="path111"
         d="m 48.962,63.766 c 0,2.512 -0.361,3.59 0.718,3.828 1.075,0.235 3.108,0 3.828,-0.479 0.717,-0.479 0.118,-3.708 -0.12,-4.311 -0.241,-0.595 -4.426,-0.115 -4.426,0.962 z" /><path
         style="fill:#65bc46"
         id="path113"
         d="m 49.418,63.208 c 0,2.511 -0.359,3.589 0.718,3.828 1.073,0.241 3.108,0 3.828,-0.478 0.717,-0.479 0.119,-3.705 -0.122,-4.312 -0.239,-0.594 -4.424,-0.113 -4.424,0.962 z" /></g></g></svg>