<?xml version="1.0" encoding="UTF-8"?><svg xmlns="http://www.w3.org/2000/svg" xmlns:xlink="http://www.w3.org/1999/xlink" fill-opacity="1" color-rendering="auto" color-interpolation="auto" stroke="black" text-rendering="auto" stroke-linecap="square" width="280" stroke-miterlimit="10" stroke-opacity="1" shape-rendering="auto" fill="black" stroke-dasharray="none" font-weight="normal" stroke-width="1" height="262" font-family="'Dialog'" font-style="normal" stroke-linejoin="miter" font-size="12px" stroke-dashoffset="0" image-rendering="auto">
  <!--Generated by ySVG 2.5-->
  <defs id="genericDefs"/>
  <g>
    <defs id="defs1">
      <linearGradient x1="165" gradientUnits="userSpaceOnUse" x2="225" y1="-110" y2="-70" id="linearGradient1" spreadMethod="reflect">
        <stop stop-opacity="1" stop-color="rgb(232,238,247)" offset="0%"/>
        <stop stop-opacity="1" stop-color="rgb(183,201,227)" offset="100%"/>
      </linearGradient>
      <linearGradient x1="155" gradientUnits="userSpaceOnUse" x2="235" y1="-180" y2="-130" id="linearGradient2" spreadMethod="reflect">
        <stop stop-opacity="1" stop-color="rgb(232,238,247)" offset="0%"/>
        <stop stop-opacity="1" stop-color="rgb(183,201,227)" offset="100%"/>
      </linearGradient>
      <linearGradient x1="20" gradientUnits="userSpaceOnUse" x2="100" y1="-40" y2="0" id="linearGradient3" spreadMethod="reflect">
        <stop stop-opacity="1" stop-color="rgb(232,238,247)" offset="0%"/>
        <stop stop-opacity="1" stop-color="rgb(183,201,227)" offset="100%"/>
      </linearGradient>
      <clipPath clipPathUnits="userSpaceOnUse" id="clipPath1">
        <path d="M0 0 L280 0 L280 262 L0 262 L0 0 Z"/>
      </clipPath>
      <clipPath clipPathUnits="userSpaceOnUse" id="clipPath2">
        <path d="M5 -232 L285 -232 L285 30 L5 30 L5 -232 Z"/>
      </clipPath>
    </defs>
    <g fill="white" text-rendering="geometricPrecision" shape-rendering="geometricPrecision" transform="translate(-5,232)" stroke="white">
      <rect x="5" width="280" height="262" y="-232" clip-path="url(#clipPath2)" stroke="none"/>
    </g>
    <g fill="white" text-rendering="geometricPrecision" shape-rendering="geometricPrecision" transform="matrix(1,0,0,1,-5,232)" stroke="white">
      <rect x="120" y="-216.4609" clip-path="url(#clipPath2)" width="150" rx="4" ry="4" height="231.4609" stroke="none"/>
      <rect x="120" width="150" height="21.4609" y="-216.4609" clip-path="url(#clipPath2)" stroke="none"/>
    </g>
    <g font-size="15px" stroke-linecap="butt" transform="matrix(1,0,0,1,-5,232)" text-rendering="geometricPrecision" font-family="sans-serif" shape-rendering="geometricPrecision" stroke-miterlimit="1.45">
      <text x="171.1006" xml:space="preserve" y="-200.5376" clip-path="url(#clipPath2)" stroke="none">App provider</text>
    </g>
    <g stroke-linecap="round" transform="matrix(1,0,0,1,-5,232)" fill="rgb(204,204,204)" text-rendering="geometricPrecision" shape-rendering="geometricPrecision" stroke-dasharray="4,3,0,3" stroke="rgb(204,204,204)" stroke-miterlimit="1.45">
      <rect x="120" y="-216.4609" clip-path="url(#clipPath2)" fill="none" width="150" rx="4" ry="4" height="231.4609"/>
    </g>
    <g fill="url(#linearGradient1)" text-rendering="geometricPrecision" shape-rendering="geometricPrecision" transform="matrix(1,0,0,1,-5,232)" stroke="url(#linearGradient1)">
      <path d="M165 -102 C166.8 -110 223.2 -110 225 -102 L225 -78 C223.2 -70 166.8 -70 165 -78 Z" clip-path="url(#clipPath2)" stroke="none"/>
    </g>
    <g text-rendering="geometricPrecision" stroke-miterlimit="1.45" shape-rendering="geometricPrecision" transform="matrix(1,0,0,1,-5,232)" stroke-linecap="butt">
      <path fill="none" d="M165 -102 C166.8 -110 223.2 -110 225 -102 L225 -78 C223.2 -70 166.8 -70 165 -78 Z" clip-path="url(#clipPath2)"/>
      <path fill="none" d="M225 -102 C223.2 -94 166.8 -94 165 -102" clip-path="url(#clipPath2)"/>
      <text x="171.5244" xml:space="preserve" y="-85.8457" font-family="sans-serif" clip-path="url(#clipPath2)" stroke="none">Storage</text>
    </g>
    <g fill="url(#linearGradient2)" text-rendering="geometricPrecision" shape-rendering="geometricPrecision" transform="matrix(1,0,0,1,-5,232)" stroke="url(#linearGradient2)">
      <path d="M165 -153.5 C155 -167.5 165 -180 181.4 -171 C181.4 -180 208.6 -180 208.6 -171 C225 -180 235 -167.5 225 -156.5 C235 -142.5 225 -130 212.6 -139 C208.6 -130 181.4 -130 185.4 -139 C165 -130 155 -142.5 165 -153.5 Z" clip-path="url(#clipPath2)" stroke="none"/>
    </g>
    <g text-rendering="geometricPrecision" stroke-miterlimit="1.45" shape-rendering="geometricPrecision" transform="matrix(1,0,0,1,-5,232)" stroke-linecap="butt">
      <path fill="none" d="M165 -153.5 C155 -167.5 165 -180 181.4 -171 C181.4 -180 208.6 -180 208.6 -171 C225 -180 235 -167.5 225 -156.5 C235 -142.5 225 -130 212.6 -139 C208.6 -130 181.4 -130 185.4 -139 C165 -130 155 -142.5 165 -153.5 Z" clip-path="url(#clipPath2)"/>
      <text x="175.3242" xml:space="preserve" y="-150.8457" font-family="sans-serif" clip-path="url(#clipPath2)" stroke="none">Server</text>
    </g>
    <g fill="url(#linearGradient3)" text-rendering="geometricPrecision" shape-rendering="geometricPrecision" transform="matrix(1,0,0,1,-5,232)" stroke="url(#linearGradient3)">
      <path d="M20 -40 L100 -40 L100 0 L20 0 Z" clip-path="url(#clipPath2)" stroke="none"/>
    </g>
    <g text-rendering="geometricPrecision" stroke-miterlimit="1.45" shape-rendering="geometricPrecision" transform="matrix(1,0,0,1,-5,232)" stroke-linecap="butt">
      <path fill="none" d="M20 -40 L100 -40 L100 0 L20 0 Z" clip-path="url(#clipPath2)"/>
      <text x="42.6299" xml:space="preserve" y="-15.8457" font-family="sans-serif" clip-path="url(#clipPath2)" stroke="none">Client</text>
    </g>
    <g text-rendering="geometricPrecision" stroke-miterlimit="1.45" shape-rendering="geometricPrecision" transform="matrix(1,0,0,1,-5,232)" stroke-linecap="butt">
      <path fill="none" d="M195 -116.0312 L195 -124.2339" clip-path="url(#clipPath2)"/>
      <path d="M195 -108.0312 L200 -120.0312 L195 -117.0312 L190 -120.0312 Z" clip-path="url(#clipPath2)" stroke="none"/>
      <path d="M195 -132.2339 L190 -120.2339 L195 -123.2339 L200 -120.2339 Z" clip-path="url(#clipPath2)" stroke="none"/>
      <path fill="none" d="M60 -48.0293 L60 -55 L195 -55 L195 -63.998" clip-path="url(#clipPath2)"/>
      <path d="M60 -40.0293 L65 -52.0293 L60 -49.0293 L55 -52.0293 Z" clip-path="url(#clipPath2)" stroke="none"/>
      <path d="M195 -71.998 L190 -59.998 L195 -62.998 L200 -59.998 Z" clip-path="url(#clipPath2)" stroke="none"/>
    </g>
  </g>
</svg>
