<?xml version="1.0" encoding="UTF-8"?><svg xmlns="http://www.w3.org/2000/svg" xmlns:xlink="http://www.w3.org/1999/xlink" fill-opacity="1" color-rendering="auto" color-interpolation="auto" stroke="black" text-rendering="auto" stroke-linecap="square" width="290" stroke-miterlimit="10" stroke-opacity="1" shape-rendering="auto" fill="black" stroke-dasharray="none" font-weight="normal" stroke-width="1" height="202" font-family="'Dialog'" font-style="normal" stroke-linejoin="miter" font-size="12px" stroke-dashoffset="0" image-rendering="auto">
  <!--Generated by ySVG 2.5-->
  <defs id="genericDefs"/>
  <g>
    <defs id="defs1">
      <linearGradient x1="185" gradientUnits="userSpaceOnUse" x2="245" y1="-40" y2="0" id="linearGradient1" spreadMethod="reflect">
        <stop stop-opacity="1" stop-color="rgb(232,238,247)" offset="0%"/>
        <stop stop-opacity="1" stop-color="rgb(183,201,227)" offset="100%"/>
      </linearGradient>
      <linearGradient x1="155" gradientUnits="userSpaceOnUse" x2="235" y1="-120" y2="-70" id="linearGradient2" spreadMethod="reflect">
        <stop stop-opacity="1" stop-color="rgb(232,238,247)" offset="0%"/>
        <stop stop-opacity="1" stop-color="rgb(183,201,227)" offset="100%"/>
      </linearGradient>
      <linearGradient x1="20" gradientUnits="userSpaceOnUse" x2="100" y1="-40" y2="0" id="linearGradient3" spreadMethod="reflect">
        <stop stop-opacity="1" stop-color="rgb(232,238,247)" offset="0%"/>
        <stop stop-opacity="1" stop-color="rgb(183,201,227)" offset="100%"/>
      </linearGradient>
      <clipPath clipPathUnits="userSpaceOnUse" id="clipPath1">
        <path d="M0 0 L290 0 L290 202 L0 202 L0 0 Z"/>
      </clipPath>
      <clipPath clipPathUnits="userSpaceOnUse" id="clipPath2">
        <path d="M5 -172 L295 -172 L295 30 L5 30 L5 -172 Z"/>
      </clipPath>
    </defs>
    <g fill="white" text-rendering="geometricPrecision" shape-rendering="geometricPrecision" transform="translate(-5,172)" stroke="white">
      <rect x="5" width="290" height="202" y="-172" clip-path="url(#clipPath2)" stroke="none"/>
    </g>
    <g fill="white" text-rendering="geometricPrecision" shape-rendering="geometricPrecision" transform="matrix(1,0,0,1,-5,172)" stroke="white">
      <rect x="120" y="-156.4609" clip-path="url(#clipPath2)" width="160" rx="4" ry="4" height="171.4609" stroke="none"/>
      <rect x="120" width="160" height="21.4609" y="-156.4609" clip-path="url(#clipPath2)" stroke="none"/>
    </g>
    <g font-size="15px" stroke-linecap="butt" transform="matrix(1,0,0,1,-5,172)" text-rendering="geometricPrecision" font-family="sans-serif" shape-rendering="geometricPrecision" stroke-miterlimit="1.45">
      <text x="181.1006" xml:space="preserve" y="-140.5376" clip-path="url(#clipPath2)" stroke="none">App provider</text>
    </g>
    <g stroke-linecap="round" transform="matrix(1,0,0,1,-5,172)" fill="rgb(204,204,204)" text-rendering="geometricPrecision" shape-rendering="geometricPrecision" stroke-dasharray="4,3,0,3" stroke="rgb(204,204,204)" stroke-miterlimit="1.45">
      <rect x="120" y="-156.4609" clip-path="url(#clipPath2)" fill="none" width="160" rx="4" ry="4" height="171.4609"/>
    </g>
    <g fill="url(#linearGradient1)" text-rendering="geometricPrecision" shape-rendering="geometricPrecision" transform="matrix(1,0,0,1,-5,172)" stroke="url(#linearGradient1)">
      <path d="M185 -32 C186.8 -40 243.2 -40 245 -32 L245 -8 C243.2 0 186.8 0 185 -8 Z" clip-path="url(#clipPath2)" stroke="none"/>
    </g>
    <g text-rendering="geometricPrecision" stroke-miterlimit="1.45" shape-rendering="geometricPrecision" transform="matrix(1,0,0,1,-5,172)" stroke-linecap="butt">
      <path fill="none" d="M185 -32 C186.8 -40 243.2 -40 245 -32 L245 -8 C243.2 0 186.8 0 185 -8 Z" clip-path="url(#clipPath2)"/>
      <path fill="none" d="M245 -32 C243.2 -24 186.8 -24 185 -32" clip-path="url(#clipPath2)"/>
      <text x="191.5244" xml:space="preserve" y="-15.8457" font-family="sans-serif" clip-path="url(#clipPath2)" stroke="none">Storage</text>
    </g>
    <g fill="url(#linearGradient2)" text-rendering="geometricPrecision" shape-rendering="geometricPrecision" transform="matrix(1,0,0,1,-5,172)" stroke="url(#linearGradient2)">
      <path d="M165 -93.5 C155 -107.5 165 -120 181.4 -111 C181.4 -120 208.6 -120 208.6 -111 C225 -120 235 -107.5 225 -96.5 C235 -82.5 225 -70 212.6 -79 C208.6 -70 181.4 -70 185.4 -79 C165 -70 155 -82.5 165 -93.5 Z" clip-path="url(#clipPath2)" stroke="none"/>
    </g>
    <g text-rendering="geometricPrecision" stroke-miterlimit="1.45" shape-rendering="geometricPrecision" transform="matrix(1,0,0,1,-5,172)" stroke-linecap="butt">
      <path fill="none" d="M165 -93.5 C155 -107.5 165 -120 181.4 -111 C181.4 -120 208.6 -120 208.6 -111 C225 -120 235 -107.5 225 -96.5 C235 -82.5 225 -70 212.6 -79 C208.6 -70 181.4 -70 185.4 -79 C165 -70 155 -82.5 165 -93.5 Z" clip-path="url(#clipPath2)"/>
      <text x="175.3242" xml:space="preserve" y="-90.8457" font-family="sans-serif" clip-path="url(#clipPath2)" stroke="none">Server</text>
    </g>
    <g fill="url(#linearGradient3)" text-rendering="geometricPrecision" shape-rendering="geometricPrecision" transform="matrix(1,0,0,1,-5,172)" stroke="url(#linearGradient3)">
      <path d="M20 -40 L100 -40 L100 0 L20 0 Z" clip-path="url(#clipPath2)" stroke="none"/>
    </g>
    <g text-rendering="geometricPrecision" stroke-miterlimit="1.45" shape-rendering="geometricPrecision" transform="matrix(1,0,0,1,-5,172)" stroke-linecap="butt">
      <path fill="none" d="M20 -40 L100 -40 L100 0 L20 0 Z" clip-path="url(#clipPath2)"/>
      <text x="42.6299" xml:space="preserve" y="-15.8457" font-family="sans-serif" clip-path="url(#clipPath2)" stroke="none">Client</text>
    </g>
    <g text-rendering="geometricPrecision" stroke-miterlimit="1.45" shape-rendering="geometricPrecision" transform="matrix(1,0,0,1,-5,172)" stroke-linecap="butt">
      <path fill="none" d="M215 -46.0312 L215 -69.4927" clip-path="url(#clipPath2)"/>
      <path d="M215 -38.0312 L220 -50.0312 L215 -47.0312 L210 -50.0312 Z" clip-path="url(#clipPath2)" stroke="none"/>
      <path d="M215 -77.4927 L210 -65.4927 L215 -68.4927 L220 -65.4927 Z" clip-path="url(#clipPath2)" stroke="none"/>
      <path fill="none" d="M60 -48.0293 L60 -55 L175 -55 L175 -68.0312" clip-path="url(#clipPath2)"/>
      <path d="M60 -40.0293 L65 -52.0293 L60 -49.0293 L55 -52.0293 Z" clip-path="url(#clipPath2)" stroke="none"/>
      <path d="M175 -76.0312 L170 -64.0312 L175 -67.0312 L180 -64.0312 Z" clip-path="url(#clipPath2)" stroke="none"/>
    </g>
  </g>
</svg>
