<?xml version="1.0" encoding="UTF-8" standalone="no"?>
<svg id="svg2" xmlns:rdf="http://www.w3.org/1999/02/22-rdf-syntax-ns#" xmlns="http://www.w3.org/2000/svg" xmlns:osb="http://www.openswatchbook.org/uri/2009/osb" viewBox="0 0 411.49175 255.93454" height="72.23mm" width="116.13mm" version="1.1" xmlns:cc="http://creativecommons.org/ns#" xmlns:xlink="http://www.w3.org/1999/xlink" xmlns:dc="http://purl.org/dc/elements/1.1/">
 <defs id="defs4">
  <linearGradient id="linearGradient9925" osb:paint="solid">
   <stop id="stop9927" stop-color="#ff5100" offset="0"/>
  </linearGradient>
  <marker id="marker4847" refY="0" refX="0" overflow="visible" orient="auto">
   <path id="path4849" stroke-linejoin="round" d="m8.7186 4.0337-10.926-4.0177 10.926-4.0177c-1.7455 2.3721-1.7354 5.6175-6e-7 8.0354z" fill-rule="evenodd" transform="matrix(-1.1,0,0,-1.1,-1.1,0)" stroke="#000" stroke-width=".625"/>
  </marker>
  <marker id="marker4789" refY="0" refX="0" overflow="visible" orient="auto">
   <path id="path4791" stroke-linejoin="round" d="m8.7186 4.0337-10.926-4.0177 10.926-4.0177c-1.7455 2.3721-1.7354 5.6175-6e-7 8.0354z" fill-rule="evenodd" transform="matrix(1.1,0,0,1.1,1.1,0)" stroke="#000" stroke-width=".625"/>
  </marker>
  <marker id="Arrow2Lend" refY="0" refX="0" orient="auto" overflow="visible">
   <path id="path4442" stroke-linejoin="round" d="m8.7186 4.0337-10.926-4.0177 10.926-4.0177c-1.7455 2.3721-1.7354 5.6175-6e-7 8.0354z" fill-rule="evenodd" transform="matrix(-1.1,0,0,-1.1,-1.1,0)" stroke="#000" stroke-width=".625"/>
  </marker>
  <marker id="marker4697" refY="0" refX="0" orient="auto" overflow="visible">
   <path id="path4699" stroke-linejoin="round" d="m8.7186 4.0337-10.926-4.0177 10.926-4.0177c-1.7455 2.3721-1.7354 5.6175-6e-7 8.0354z" fill-rule="evenodd" transform="matrix(1.1,0,0,1.1,1.1,0)" stroke="#000" stroke-width=".625"/>
  </marker>
  <linearGradient id="linearGradient9917" y2="565.72" gradientUnits="userSpaceOnUse" y1="565.72" gradientTransform="translate(7.0711 -268.68)" x2="289.59" x1="109.74">
   <stop id="stop9915" stop-color="#97ee00" offset="0"/>
  </linearGradient>
  <linearGradient id="linearGradient9929" y2="400.14" xlink:href="#linearGradient9925" gradientUnits="userSpaceOnUse" y1="400.14" gradientTransform="translate(7.0711 -268.68)" x2="289.59" x1="109.74"/>
  <linearGradient id="linearGradient9935" y2="515.67" xlink:href="#linearGradient9925" gradientUnits="userSpaceOnUse" y1="515.67" x2="230.46" x1="16.507"/>
 </defs>
 <metadata id="metadata7">
  <rdf:RDF>
   <cc:Work rdf:about="">
    <dc:format>image/svg+xml</dc:format>
    <dc:type rdf:resource="http://purl.org/dc/dcmitype/StillImage"/>
    <dc:title/>
   </cc:Work>
  </rdf:RDF>
 </metadata>
 <g id="layer1" transform="translate(-116.81 -86.029)">
  <path id="path4158-2" stroke-linejoin="round" d="m140.28 258.69a2.4842 2.4686 0 0 1 -2.4842 2.4686 2.4842 2.4686 0 0 1 -2.4842 -2.4686 2.4842 2.4686 0 0 1 2.4842 -2.4686 2.4842 2.4686 0 0 1 2.4842 2.4686zm-7.3544 0a2.4842 2.4686 0 0 1 -2.4842 2.4686 2.4842 2.4686 0 0 1 -2.4842 -2.4686 2.4842 2.4686 0 0 1 2.4842 -2.4686 2.4842 2.4686 0 0 1 2.4842 2.4686zm-6.9448 0a2.4842 2.4686 0 0 1 -2.4842 2.4686 2.4842 2.4686 0 0 1 -2.4842 -2.4686 2.4842 2.4686 0 0 1 2.4842 -2.4686 2.4842 2.4686 0 0 1 2.4842 2.4686zm18.229-3.8221h147.9v8.4h-147.9zm-27.149-2.5002h179.35v89.346h-179.35z" stroke="#000" stroke-linecap="round" stroke-width=".5" fill="url(#linearGradient9917)"/>
  <rect id="rect4136-6" stroke-linejoin="round" height="89.346" width="179.35" stroke="#000" stroke-linecap="round" y="86.791" x="117.06" stroke-width=".5" fill="url(#linearGradient9929)"/>
  <g id="g4325" transform="matrix(.66990 0 0 .64772 373.92 -202.54)" stroke-width=".75906" fill="url(#linearGradient9935)">
   <path id="path1934" stroke-linejoin="round" d="m229.66 458.75c0 7.166-47.748 13.111-105.8 13.111-58.056 0-106.75-5.8158-106.75-12.982 0-7.166 48.693-12.982 106.75-12.982 58.056 0 105.8 5.6867 105.8 12.853zm0.008-0.0254 0.40979 112.77c0 6.3034-47.5 13.936-106.03 13.936-58.527 0-107.17-7.4228-107.17-13.726l0.151-112.85" fill-rule="evenodd" stroke="#000" stroke-width=".75906" fill="url(#linearGradient9935)"/>
  </g>
  <text id="text4367" style="word-spacing:0px;letter-spacing:0px" xml:space="preserve" font-size="40px" line-height="125%" y="136.01041" x="140.95952" font-family="Sans" fill="#000000"><tspan id="tspan4369" font-size="17.5px" y="136.01041" x="140.95952" font-family="&apos;Open Sans&apos;">Web Application</tspan></text>
  <text id="text4367-4" style="word-spacing:0px;letter-spacing:0px" xml:space="preserve" font-size="40px" line-height="125%" y="140.42429" x="437.285" font-family="Sans" fill="#000000"><tspan id="tspan4389" font-size="17.5px" y="140.42429" x="437.285" font-family="&apos;Open Sans&apos;">Data</tspan></text>
  <text id="text4367-40" style="word-spacing:0px;letter-spacing:0px" xml:space="preserve" font-size="17.5px" line-height="125%" y="296.26361" x="142.23698" font-family="&apos;Open Sans&apos;" fill="#000000"><tspan id="tspan4369-5" y="296.26361" x="142.23698">User&apos;s</tspan><tspan id="tspan6317" y="318.13861" x="142.23698">Browser/Device</tspan></text>
  <path id="path4415" marker-end="url(#Arrow2Lend)" d="m304.6 129.11h73.618" marker-start="url(#marker4697)" stroke="#000" stroke-width=".86235px" fill="none"/>
  <path id="path4781" marker-end="url(#marker4847)" d="m202.03 183.41v62.03" marker-start="url(#marker4789)" stroke="#000" stroke-width=".93661px" fill="none"/>
 </g>
</svg>
