<?xml version="1.0" encoding="UTF-8"?><svg xmlns="http://www.w3.org/2000/svg" xmlns:xlink="http://www.w3.org/1999/xlink" fill-opacity="1" color-rendering="auto" color-interpolation="auto" stroke="black" text-rendering="auto" stroke-linecap="square" width="431" stroke-miterlimit="10" stroke-opacity="1" shape-rendering="auto" fill="black" stroke-dasharray="none" font-weight="normal" stroke-width="1" height="202" font-family="'Dialog'" font-style="normal" stroke-linejoin="miter" font-size="12px" stroke-dashoffset="0" image-rendering="auto">
  <!--Generated by ySVG 2.5-->
  <defs id="genericDefs"/>
  <g>
    <defs id="defs1">
      <linearGradient x1="20" gradientUnits="userSpaceOnUse" x2="80" y1="-115" y2="-75" id="linearGradient1" spreadMethod="reflect">
        <stop stop-opacity="1" stop-color="rgb(232,238,247)" offset="0%"/>
        <stop stop-opacity="1" stop-color="rgb(183,201,227)" offset="100%"/>
      </linearGradient>
      <linearGradient x1="135" gradientUnits="userSpaceOnUse" x2="215" y1="-40" y2="0" id="linearGradient2" spreadMethod="reflect">
        <stop stop-opacity="1" stop-color="rgb(232,238,247)" offset="0%"/>
        <stop stop-opacity="1" stop-color="rgb(183,201,227)" offset="100%"/>
      </linearGradient>
      <linearGradient x1="270" gradientUnits="userSpaceOnUse" x2="350" y1="-120" y2="-70" id="linearGradient3" spreadMethod="reflect">
        <stop stop-opacity="1" stop-color="rgb(232,238,247)" offset="0%"/>
        <stop stop-opacity="1" stop-color="rgb(183,201,227)" offset="100%"/>
      </linearGradient>
      <clipPath clipPathUnits="userSpaceOnUse" id="clipPath1">
        <path d="M0 0 L431 0 L431 202 L0 202 L0 0 Z"/>
      </clipPath>
      <clipPath clipPathUnits="userSpaceOnUse" id="clipPath2">
        <path d="M-31 -172 L400 -172 L400 30 L-31 30 L-31 -172 Z"/>
      </clipPath>
    </defs>
    <g fill="white" text-rendering="geometricPrecision" shape-rendering="geometricPrecision" transform="translate(31,172)" stroke="white">
      <rect x="-31" width="431" height="202" y="-172" clip-path="url(#clipPath2)" stroke="none"/>
    </g>
    <g fill="white" text-rendering="geometricPrecision" shape-rendering="geometricPrecision" transform="matrix(1,0,0,1,31,172)" stroke="white">
      <rect x="-15" y="-156.4609" clip-path="url(#clipPath2)" width="130" rx="4" ry="4" height="171.4609" stroke="none"/>
      <rect x="-15.1421" width="130.2842" height="21.4609" y="-156.4609" clip-path="url(#clipPath2)" stroke="none"/>
    </g>
    <g font-size="15px" stroke-linecap="butt" transform="matrix(1,0,0,1,31,172)" text-rendering="geometricPrecision" font-family="sans-serif" shape-rendering="geometricPrecision" stroke-miterlimit="1.45">
      <text x="-13.1421" xml:space="preserve" y="-140.5376" clip-path="url(#clipPath2)" stroke="none">Storage provider</text>
    </g>
    <g stroke-linecap="round" transform="matrix(1,0,0,1,31,172)" fill="rgb(204,204,204)" text-rendering="geometricPrecision" shape-rendering="geometricPrecision" stroke-dasharray="4,3,0,3" stroke="rgb(204,204,204)" stroke-miterlimit="1.45">
      <rect x="-15" y="-156.4609" clip-path="url(#clipPath2)" fill="none" width="130" rx="4" ry="4" height="171.4609"/>
    </g>
    <g fill="url(#linearGradient1)" text-rendering="geometricPrecision" shape-rendering="geometricPrecision" transform="matrix(1,0,0,1,31,172)" stroke="url(#linearGradient1)">
      <path d="M20 -107 C21.8 -115 78.2 -115 80 -107 L80 -83 C78.2 -75 21.8 -75 20 -83 Z" clip-path="url(#clipPath2)" stroke="none"/>
    </g>
    <g text-rendering="geometricPrecision" stroke-miterlimit="1.45" shape-rendering="geometricPrecision" transform="matrix(1,0,0,1,31,172)" stroke-linecap="butt">
      <path fill="none" d="M20 -107 C21.8 -115 78.2 -115 80 -107 L80 -83 C78.2 -75 21.8 -75 20 -83 Z" clip-path="url(#clipPath2)"/>
      <path fill="none" d="M80 -107 C78.2 -99 21.8 -99 20 -107" clip-path="url(#clipPath2)"/>
      <text x="26.5244" xml:space="preserve" y="-90.8457" font-family="sans-serif" clip-path="url(#clipPath2)" stroke="none">Storage</text>
    </g>
    <g fill="url(#linearGradient2)" text-rendering="geometricPrecision" shape-rendering="geometricPrecision" transform="matrix(1,0,0,1,31,172)" stroke="url(#linearGradient2)">
      <path d="M135 -40 L215 -40 L215 0 L135 0 Z" clip-path="url(#clipPath2)" stroke="none"/>
    </g>
    <g text-rendering="geometricPrecision" stroke-miterlimit="1.45" shape-rendering="geometricPrecision" transform="matrix(1,0,0,1,31,172)" stroke-linecap="butt">
      <path fill="none" d="M135 -40 L215 -40 L215 0 L135 0 Z" clip-path="url(#clipPath2)"/>
      <text x="157.6299" xml:space="preserve" y="-15.8457" font-family="sans-serif" clip-path="url(#clipPath2)" stroke="none">Client</text>
    </g>
    <g text-rendering="geometricPrecision" stroke-miterlimit="1.45" shape-rendering="geometricPrecision" transform="matrix(1,0,0,1,31,172)" stroke-linecap="butt">
      <path fill="none" d="M155 -48.0293 L155 -55 L50 -55 L50 -68.9882" clip-path="url(#clipPath2)"/>
      <path d="M155 -40.0293 L160 -52.0293 L155 -49.0293 L150 -52.0293 Z" clip-path="url(#clipPath2)" stroke="none"/>
      <path d="M50 -76.9882 L45 -64.9882 L50 -67.9882 L55 -64.9882 Z" clip-path="url(#clipPath2)" stroke="none"/>
    </g>
    <g fill="white" text-rendering="geometricPrecision" shape-rendering="geometricPrecision" transform="matrix(1,0,0,1,31,172)" stroke="white">
      <rect x="235" y="-156.4609" clip-path="url(#clipPath2)" width="150" rx="4" ry="4" height="171.4609" stroke="none"/>
      <rect x="235" width="150" height="21.4609" y="-156.4609" clip-path="url(#clipPath2)" stroke="none"/>
    </g>
    <g font-size="15px" stroke-linecap="butt" transform="matrix(1,0,0,1,31,172)" text-rendering="geometricPrecision" font-family="sans-serif" shape-rendering="geometricPrecision" stroke-miterlimit="1.45">
      <text x="286.1006" xml:space="preserve" y="-140.5376" clip-path="url(#clipPath2)" stroke="none">App provider</text>
    </g>
    <g stroke-linecap="round" transform="matrix(1,0,0,1,31,172)" fill="rgb(204,204,204)" text-rendering="geometricPrecision" shape-rendering="geometricPrecision" stroke-dasharray="4,3,0,3" stroke="rgb(204,204,204)" stroke-miterlimit="1.45">
      <rect x="235" y="-156.4609" clip-path="url(#clipPath2)" fill="none" width="150" rx="4" ry="4" height="171.4609"/>
    </g>
    <g fill="url(#linearGradient3)" text-rendering="geometricPrecision" shape-rendering="geometricPrecision" transform="matrix(1,0,0,1,31,172)" stroke="url(#linearGradient3)">
      <path d="M280 -93.5 C270 -107.5 280 -120 296.4 -111 C296.4 -120 323.6 -120 323.6 -111 C340 -120 350 -107.5 340 -96.5 C350 -82.5 340 -70 327.6 -79 C323.6 -70 296.4 -70 300.4 -79 C280 -70 270 -82.5 280 -93.5 Z" clip-path="url(#clipPath2)" stroke="none"/>
    </g>
    <g text-rendering="geometricPrecision" stroke-miterlimit="1.45" shape-rendering="geometricPrecision" transform="matrix(1,0,0,1,31,172)" stroke-linecap="butt">
      <path fill="none" d="M280 -93.5 C270 -107.5 280 -120 296.4 -111 C296.4 -120 323.6 -120 323.6 -111 C340 -120 350 -107.5 340 -96.5 C350 -82.5 340 -70 327.6 -79 C323.6 -70 296.4 -70 300.4 -79 C280 -70 270 -82.5 280 -93.5 Z" clip-path="url(#clipPath2)"/>
      <text x="290.3242" xml:space="preserve" y="-90.8457" font-family="sans-serif" clip-path="url(#clipPath2)" stroke="none">Server</text>
    </g>
    <g text-rendering="geometricPrecision" stroke-miterlimit="1.45" shape-rendering="geometricPrecision" transform="matrix(1,0,0,1,31,172)" stroke-linecap="butt">
      <path fill="none" d="M195 -48.0293 L195 -55 L310 -55 L310 -64.2475" clip-path="url(#clipPath2)"/>
      <path d="M195 -40.0293 L200 -52.0293 L195 -49.0293 L190 -52.0293 Z" clip-path="url(#clipPath2)" stroke="none"/>
      <path d="M310 -72.2475 L305 -60.2475 L310 -63.2475 L315 -60.2475 Z" clip-path="url(#clipPath2)" stroke="none"/>
    </g>
  </g>
</svg>
