<?xml version="1.0" encoding="UTF-8" standalone="no"?>
<svg id="svg2" xmlns:rdf="http://www.w3.org/1999/02/22-rdf-syntax-ns#" xmlns="http://www.w3.org/2000/svg" xmlns:osb="http://www.openswatchbook.org/uri/2009/osb" viewBox="0 0 411.49172 255.93449" height="72.23mm" width="116.13mm" version="1.1" xmlns:cc="http://creativecommons.org/ns#" xmlns:xlink="http://www.w3.org/1999/xlink" xmlns:dc="http://purl.org/dc/elements/1.1/">
 <defs id="defs4">
  <linearGradient id="linearGradient9919" osb:paint="solid">
   <stop id="stop9921" stop-color="#97ee00" offset="0"/>
  </linearGradient>
  <marker id="marker8343" refY="0" refX="0" overflow="visible" orient="auto">
   <path id="path8345" stroke-linejoin="round" d="m8.7186 4.0337-10.926-4.0177 10.926-4.0177c-1.7455 2.3721-1.7354 5.6175-6e-7 8.0354z" fill-rule="evenodd" transform="matrix(-1.1,0,0,-1.1,-1.1,0)" stroke="#000" stroke-width=".625"/>
  </marker>
  <marker id="marker8119" refY="0" refX="0" orient="auto" overflow="visible">
   <path id="path8121" stroke-linejoin="round" d="m8.7186 4.0337-10.926-4.0177 10.926-4.0177c-1.7455 2.3721-1.7354 5.6175-6e-7 8.0354z" fill-rule="evenodd" transform="matrix(-1.1,0,0,-1.1,-1.1,0)" stroke="#000" stroke-width=".625"/>
  </marker>
  <marker id="marker8039" refY="0" refX="0" overflow="visible" orient="auto">
   <path id="path8041" stroke-linejoin="round" d="m8.7186 4.0337-10.926-4.0177 10.926-4.0177c-1.7455 2.3721-1.7354 5.6175-6e-7 8.0354z" fill-rule="evenodd" transform="matrix(1.1,0,0,1.1,1.1,0)" stroke="#000" stroke-width=".625"/>
  </marker>
  <linearGradient id="linearGradient9979" y2="587.48" gradientUnits="userSpaceOnUse" y1="587.48" gradientTransform="translate(-488.91 215.16)" x2="788.28" x1="608.44">
   <stop id="stop9927" stop-color="#ff5100" offset="0"/>
  </linearGradient>
  <linearGradient id="linearGradient9985" y2="753.06" xlink:href="#linearGradient9919" gradientUnits="userSpaceOnUse" y1="753.06" gradientTransform="translate(-488.91 215.16)" x2="788.28" x1="608.44"/>
  <linearGradient id="linearGradient9991" y2="515.67" xlink:href="#linearGradient9919" gradientUnits="userSpaceOnUse" y1="515.67" x2="230.46" x1="16.507"/>
 </defs>
 <metadata id="metadata7">
  <rdf:RDF>
   <cc:Work rdf:about="">
    <dc:format>image/svg+xml</dc:format>
    <dc:type rdf:resource="http://purl.org/dc/dcmitype/StillImage"/>
    <dc:title/>
   </cc:Work>
  </rdf:RDF>
 </metadata>
 <g id="layer1" transform="translate(-119.52 -757.72)">
  <path id="path4158-2-9-2" stroke-linejoin="round" d="m142.99 929.87a2.4842 2.4686 0 0 1 -2.4842 2.4686 2.4842 2.4686 0 0 1 -2.4842 -2.4686 2.4842 2.4686 0 0 1 2.4842 -2.4686 2.4842 2.4686 0 0 1 2.4842 2.4686zm-7.3544 0a2.4842 2.4686 0 0 1 -2.4842 2.4686 2.4842 2.4686 0 0 1 -2.4842 -2.4686 2.4842 2.4686 0 0 1 2.4842 -2.4686 2.4842 2.4686 0 0 1 2.4842 2.4686zm-6.9448 0a2.4842 2.4686 0 0 1 -2.4842 2.4686 2.4842 2.4686 0 0 1 -2.4842 -2.4686 2.4842 2.4686 0 0 1 2.4842 -2.4686 2.4842 2.4686 0 0 1 2.4842 2.4686zm18.229-3.8221h147.9v8.4h-147.9zm-27.149-2.5002h179.35v89.346h-179.35z" stroke="#000" stroke-linecap="round" stroke-width=".5" fill="url(#linearGradient9985)"/>
  <rect id="rect4136-6-9-9" stroke-linejoin="round" height="89.346" width="179.35" stroke="#000" stroke-linecap="round" y="757.97" x="119.77" stroke-width=".5" fill="url(#linearGradient9979)"/>
  <g id="g4325-8-3" transform="matrix(.66990 0 0 .64772 376.63 634.21)" stroke-width=".75906" fill="url(#linearGradient9991)">
   <path id="path1934-3-0" stroke-linejoin="round" d="m229.66 458.75c0 7.166-47.748 13.111-105.8 13.111-58.056 0-106.75-5.8158-106.75-12.982 0-7.166 48.693-12.982 106.75-12.982 58.056 0 105.8 5.6867 105.8 12.853zm0.008-0.0254 0.40979 112.77c0 6.3034-47.5 13.936-106.03 13.936-58.527 0-107.17-7.4228-107.17-13.726l0.151-112.85" fill-rule="evenodd" stroke="#000" stroke-width=".75906" fill="url(#linearGradient9991)"/>
  </g>
  <text id="text4367-6-9" style="word-spacing:0px;letter-spacing:0px" xml:space="preserve" font-size="40px" line-height="125%" y="807.18884" x="143.67186" font-family="Sans" fill="#000000"><tspan id="tspan4369-55-4" font-size="17.5px" y="807.18884" x="143.67186" font-family="&apos;Open Sans&apos;">Web Application</tspan></text>
  <text id="text4367-4-3-7" style="word-spacing:0px;letter-spacing:0px" xml:space="preserve" font-size="40px" line-height="125%" y="979.60266" x="439.99738" font-family="Sans" fill="#000000"><tspan id="tspan4389-9-6" font-size="17.5px" y="979.60266" x="439.99738" font-family="&apos;Open Sans&apos;">Data</tspan></text>
  <text id="text4367-40-9-3" style="word-spacing:0px;letter-spacing:0px" xml:space="preserve" font-size="17.5px" line-height="125%" y="967.44196" x="144.94933" font-family="&apos;Open Sans&apos;" fill="#000000"><tspan id="tspan4369-5-5-3" y="967.44196" x="144.94933">User&apos;s</tspan><tspan id="tspan6317-9-7" y="989.31696" x="144.94933">Browser/Device</tspan></text>
  <path id="path4415-4-4" marker-end="url(#marker8119)" d="m307.31 968.29h73.618" marker-start="url(#marker8039)" stroke="#000" stroke-width="0.862" fill="none"/>
  <path id="path4781-1-2" marker-end="url(#marker8343)" d="m204.74 854.59v62.03" stroke="#000" stroke-width=".93661px" fill="none"/>
 </g>
</svg>
