<?xml version="1.0" encoding="UTF-8"?><svg xmlns="http://www.w3.org/2000/svg" xmlns:xlink="http://www.w3.org/1999/xlink" fill-opacity="1" color-rendering="auto" color-interpolation="auto" stroke="black" text-rendering="auto" stroke-linecap="square" width="370" stroke-miterlimit="10" stroke-opacity="1" shape-rendering="auto" fill="black" stroke-dasharray="none" font-weight="normal" stroke-width="1" height="212" font-family="'Dialog'" font-style="normal" stroke-linejoin="miter" font-size="12px" stroke-dashoffset="0" image-rendering="auto">
  <!--Generated by ySVG 2.5-->
  <defs id="genericDefs"/>
  <g>
    <defs id="defs1">
      <linearGradient x1="155" gradientUnits="userSpaceOnUse" x2="215" y1="-125" y2="-85" id="linearGradient1" spreadMethod="reflect">
        <stop stop-opacity="1" stop-color="rgb(232,238,247)" offset="0%"/>
        <stop stop-opacity="1" stop-color="rgb(183,201,227)" offset="100%"/>
      </linearGradient>
      <linearGradient x1="245" gradientUnits="userSpaceOnUse" x2="325" y1="-130" y2="-80" id="linearGradient2" spreadMethod="reflect">
        <stop stop-opacity="1" stop-color="rgb(232,238,247)" offset="0%"/>
        <stop stop-opacity="1" stop-color="rgb(183,201,227)" offset="100%"/>
      </linearGradient>
      <linearGradient x1="20" gradientUnits="userSpaceOnUse" x2="100" y1="-40" y2="0" id="linearGradient3" spreadMethod="reflect">
        <stop stop-opacity="1" stop-color="rgb(232,238,247)" offset="0%"/>
        <stop stop-opacity="1" stop-color="rgb(183,201,227)" offset="100%"/>
      </linearGradient>
      <clipPath clipPathUnits="userSpaceOnUse" id="clipPath1">
        <path d="M0 0 L370 0 L370 212 L0 212 L0 0 Z"/>
      </clipPath>
      <clipPath clipPathUnits="userSpaceOnUse" id="clipPath2">
        <path d="M5 -182 L375 -182 L375 30 L5 30 L5 -182 Z"/>
      </clipPath>
    </defs>
    <g fill="white" text-rendering="geometricPrecision" shape-rendering="geometricPrecision" transform="translate(-5,182)" stroke="white">
      <rect x="5" width="370" height="212" y="-182" clip-path="url(#clipPath2)" stroke="none"/>
    </g>
    <g fill="white" text-rendering="geometricPrecision" shape-rendering="geometricPrecision" transform="matrix(1,0,0,1,-5,182)" stroke="white">
      <rect x="120" y="-166.4609" clip-path="url(#clipPath2)" width="240" rx="4" ry="4" height="181.4609" stroke="none"/>
      <rect x="120" width="240" height="21.4609" y="-166.4609" clip-path="url(#clipPath2)" stroke="none"/>
    </g>
    <g font-size="15px" stroke-linecap="butt" transform="matrix(1,0,0,1,-5,182)" text-rendering="geometricPrecision" font-family="sans-serif" shape-rendering="geometricPrecision" stroke-miterlimit="1.45">
      <text x="261.1006" xml:space="preserve" y="-150.5376" clip-path="url(#clipPath2)" stroke="none">App provider</text>
    </g>
    <g stroke-linecap="round" transform="matrix(1,0,0,1,-5,182)" fill="rgb(204,204,204)" text-rendering="geometricPrecision" shape-rendering="geometricPrecision" stroke-dasharray="4,3,0,3" stroke="rgb(204,204,204)" stroke-miterlimit="1.45">
      <rect x="120" y="-166.4609" clip-path="url(#clipPath2)" fill="none" width="240" rx="4" ry="4" height="181.4609"/>
    </g>
    <g fill="url(#linearGradient1)" text-rendering="geometricPrecision" shape-rendering="geometricPrecision" transform="matrix(1,0,0,1,-5,182)" stroke="url(#linearGradient1)">
      <path d="M155 -117 C156.8 -125 213.2 -125 215 -117 L215 -93 C213.2 -85 156.8 -85 155 -93 Z" clip-path="url(#clipPath2)" stroke="none"/>
    </g>
    <g text-rendering="geometricPrecision" stroke-miterlimit="1.45" shape-rendering="geometricPrecision" transform="matrix(1,0,0,1,-5,182)" stroke-linecap="butt">
      <path fill="none" d="M155 -117 C156.8 -125 213.2 -125 215 -117 L215 -93 C213.2 -85 156.8 -85 155 -93 Z" clip-path="url(#clipPath2)"/>
      <path fill="none" d="M215 -117 C213.2 -109 156.8 -109 155 -117" clip-path="url(#clipPath2)"/>
      <text x="161.5244" xml:space="preserve" y="-100.8457" font-family="sans-serif" clip-path="url(#clipPath2)" stroke="none">Storage</text>
    </g>
    <g fill="url(#linearGradient2)" text-rendering="geometricPrecision" shape-rendering="geometricPrecision" transform="matrix(1,0,0,1,-5,182)" stroke="url(#linearGradient2)">
      <path d="M255 -103.5 C245 -117.5 255 -130 271.4 -121 C271.4 -130 298.6 -130 298.6 -121 C315 -130 325 -117.5 315 -106.5 C325 -92.5 315 -80 302.6 -89 C298.6 -80 271.4 -80 275.4 -89 C255 -80 245 -92.5 255 -103.5 Z" clip-path="url(#clipPath2)" stroke="none"/>
    </g>
    <g text-rendering="geometricPrecision" stroke-miterlimit="1.45" shape-rendering="geometricPrecision" transform="matrix(1,0,0,1,-5,182)" stroke-linecap="butt">
      <path fill="none" d="M255 -103.5 C245 -117.5 255 -130 271.4 -121 C271.4 -130 298.6 -130 298.6 -121 C315 -130 325 -117.5 315 -106.5 C325 -92.5 315 -80 302.6 -89 C298.6 -80 271.4 -80 275.4 -89 C255 -80 245 -92.5 255 -103.5 Z" clip-path="url(#clipPath2)"/>
      <text x="265.3242" xml:space="preserve" y="-100.8457" font-family="sans-serif" clip-path="url(#clipPath2)" stroke="none">Server</text>
    </g>
    <g fill="url(#linearGradient3)" text-rendering="geometricPrecision" shape-rendering="geometricPrecision" transform="matrix(1,0,0,1,-5,182)" stroke="url(#linearGradient3)">
      <path d="M20 -40 L100 -40 L100 0 L20 0 Z" clip-path="url(#clipPath2)" stroke="none"/>
    </g>
    <g text-rendering="geometricPrecision" stroke-miterlimit="1.45" shape-rendering="geometricPrecision" transform="matrix(1,0,0,1,-5,182)" stroke-linecap="butt">
      <path fill="none" d="M20 -40 L100 -40 L100 0 L20 0 Z" clip-path="url(#clipPath2)"/>
      <text x="42.6299" xml:space="preserve" y="-15.8457" font-family="sans-serif" clip-path="url(#clipPath2)" stroke="none">Client</text>
    </g>
    <g text-rendering="geometricPrecision" stroke-miterlimit="1.45" shape-rendering="geometricPrecision" transform="matrix(1,0,0,1,-5,182)" stroke-linecap="butt">
      <path fill="none" d="M40 -48.0293 L40 -70 L185 -70 L185 -78.998" clip-path="url(#clipPath2)"/>
      <path d="M40 -40.0293 L45 -52.0293 L40 -49.0293 L35 -52.0293 Z" clip-path="url(#clipPath2)" stroke="none"/>
      <path d="M185 -86.998 L180 -74.998 L185 -77.998 L190 -74.998 Z" clip-path="url(#clipPath2)" stroke="none"/>
      <path fill="none" d="M80 -48.0293 L80 -55 L285 -55 L285 -74.2546" clip-path="url(#clipPath2)"/>
      <path d="M80 -40.0293 L85 -52.0293 L80 -49.0293 L75 -52.0293 Z" clip-path="url(#clipPath2)" stroke="none"/>
      <path d="M285 -82.2546 L280 -70.2546 L285 -73.2546 L290 -70.2546 Z" clip-path="url(#clipPath2)" stroke="none"/>
    </g>
  </g>
</svg>
