<svg xmlns="http://www.w3.org/2000/svg" height="160" viewBox="0 0 439 273" font-family="sans-serif" font-size="32" text-anchor="middle" stroke-width="3">
    <g fill="#f37943" stroke="#7a3c21">
        <rect width="100" height="100" x="60" y="20" rx="10"/>
        <path d="M370 23h1l5 5 1 9v78c0 5-22 10-50 10s-50-5-50-10V37l1-8v-1l5-5 9-1h70z"/>
        <ellipse cx="327" cy="27.5" rx="50" ry="10.5"/>
    </g>
    <rect width="374.5" height="62.5" x="34" y="188.5" fill="#87c1f7" stroke="#43617c" rx="10"/>
    <g fill="none" stroke="#000" stroke-linecap="round" stroke-linejoin="round">
        <path d="M109 175v-38m0 39-12-12m12 12 12-12"/>
        <path d="M325 175v-38m0 39-12-12m12 12 12-12m-12-29-12 12m24 0-12-12"/>
    </g>
    <text x="110" y="81">App</text>
    <text x="326" y="86">Data</text>
    <text x="221.3" y="230.5">Browser</text>
    <style>
        .dark g[stroke="#000"] { stroke: #fff }
    </style>
</svg>